<svg xmlns="http://www.w3.org/2000/svg" width="56" height="56"><g transform="translate(-1204 -1597)"><circle data-name="楕円形 12" cx="28" cy="28" r="28" transform="translate(1204 1597)" fill="#d45b34"/><path d="M1232.066 1617.85a7.209 7.209 0 107.209 7.209 7.2 7.2 0 00-7.209-7.209zm0 11.9a4.687 4.687 0 114.687-4.687 4.7 4.7 0 01-4.687 4.687zm9.185-12.195a1.682 1.682 0 11-1.681-1.68 1.678 1.678 0 011.681 1.68zm4.775 1.707a8.322 8.322 0 00-2.271-5.887 8.376 8.376 0 00-5.892-2.271c-2.322-.132-9.28-.132-11.6 0a8.364 8.364 0 00-5.888 2.26 8.349 8.349 0 00-2.276 5.892c-.132 2.322-.132 9.28 0 11.6a8.321 8.321 0 002.276 5.893 8.387 8.387 0 005.892 2.271c2.322.132 9.28.132 11.6 0a8.322 8.322 0 005.892-2.271 8.376 8.376 0 002.271-5.892c.132-2.322.132-9.274 0-11.6zm-3 14.086a4.745 4.745 0 01-2.673 2.673c-1.851.734-6.243.565-8.288.565s-6.444.163-8.288-.565a4.745 4.745 0 01-2.673-2.673c-.734-1.851-.565-6.243-.565-8.288s-.164-6.444.565-8.285a4.745 4.745 0 012.671-2.677c1.851-.734 6.243-.565 8.288-.565s6.444-.163 8.288.565a4.745 4.745 0 012.676 2.677c.734 1.851.565 6.243.565 8.288s.169 6.44-.565 8.285z" fill="#fff"/></g></svg>