<svg xmlns="http://www.w3.org/2000/svg" width="15.59" height="15.59"><path data-name="パス 34" d="M0 0h15.59v15.59H0z" fill="none"/><path data-name="パス 35" d="M3.771 11.245h2.977v.733a1.554 1.554 0 01-1.489 1.612 1.554 1.554 0 01-1.489-1.612zm2.165-6.964c1.083 0 1.624 1.688 1.624 2.861a7.941 7.941 0 01-.541 2.052l-.271.879H3.771c0-.586-.271-1.466-.271-2.931a2.743 2.743 0 012.436-2.861zm6.525 4.677l-.117.722a1.5 1.5 0 01-1.725 1.308 1.606 1.606 0 01-1.208-1.869l.118-.719 2.932.559zm-1.016-7.266a2.833 2.833 0 011.94 3.275c-.235 1.444-.643 2.259-.736 2.836l-2.932-.56-.126-.917a8.066 8.066 0 01-.2-2.122c.188-1.155.992-2.715 2.058-2.512z" fill="#d45b34"/></svg>