<svg xmlns="http://www.w3.org/2000/svg" width="15.588" height="15.588"><path data-name="パス 32" d="M0 0h15.588v15.588H0z" fill="none"/><path data-name="パス 33" d="M12.341 12.99H3.248v.65a.65.65 0 01-.65.65h-.649a.65.65 0 01-.65-.65V7.798l1.632-4.357a1.3 1.3 0 011.217-.843h7.293a1.3 1.3 0 011.217.843l1.631 4.357v5.846a.65.65 0 01-.65.65h-.65a.65.65 0 01-.65-.65zM2.686 7.798h10.213l-1.458-3.9H4.148zm1.535 3.248a.974.974 0 10-.974-.974.974.974 0 00.975.97zm7.145 0a.974.974 0 10-.974-.974.974.974 0 00.974.97z" fill="#d45b34"/></svg>