<svg xmlns="http://www.w3.org/2000/svg" width="56" height="56" viewBox="0 0 56 56">
  <g id="icon_inst" transform="translate(-1204 -1597)">
    <circle id="楕円形_12" data-name="楕円形 12" cx="28" cy="28" r="28" transform="translate(1204 1597)" fill="#d45b34"/>
    <path id="instagram-brands" d="M13.991,38.675A7.209,7.209,0,1,0,21.2,45.884,7.2,7.2,0,0,0,13.991,38.675Zm0,11.9a4.687,4.687,0,1,1,4.687-4.687,4.7,4.7,0,0,1-4.687,4.687ZM23.176,38.38A1.682,1.682,0,1,1,21.495,36.7,1.678,1.678,0,0,1,23.176,38.38Zm4.775,1.707A8.322,8.322,0,0,0,25.68,34.2a8.376,8.376,0,0,0-5.892-2.271c-2.322-.132-9.28-.132-11.6,0A8.364,8.364,0,0,0,2.3,34.189,8.349,8.349,0,0,0,.024,40.081c-.132,2.322-.132,9.28,0,11.6A8.321,8.321,0,0,0,2.3,57.574a8.387,8.387,0,0,0,5.892,2.271c2.322.132,9.28.132,11.6,0a8.322,8.322,0,0,0,5.892-2.271,8.376,8.376,0,0,0,2.271-5.892c.132-2.322.132-9.274,0-11.6Zm-3,14.086a4.745,4.745,0,0,1-2.673,2.673c-1.851.734-6.243.565-8.288.565s-6.444.163-8.288-.565a4.745,4.745,0,0,1-2.673-2.673c-.734-1.851-.565-6.243-.565-8.288S2.3,39.441,3.029,37.6A4.745,4.745,0,0,1,5.7,34.923c1.851-.734,6.243-.565,8.288-.565s6.444-.163,8.288.565A4.745,4.745,0,0,1,24.952,37.6c.734,1.851.565,6.243.565,8.288S25.686,52.328,24.952,54.173Z" transform="translate(1218.075 1579.175)" fill="#fff"/>
  </g>
</svg>
