<?xml version="1.0" encoding="utf-8"?>
<!-- Generator: Adobe Illustrator 25.0.1, SVG Export Plug-In . SVG Version: 6.00 Build 0)  -->
<svg version="1.1" id="レイヤー_1" xmlns="http://www.w3.org/2000/svg" xmlns:xlink="http://www.w3.org/1999/xlink" x="0px"
	 y="0px" viewBox="0 0 15 15" style="enable-background:new 0 0 15 15;" xml:space="preserve">
<style type="text/css">
	.st0{fill:none;}
	.st1{fill:#F6C9B5;}
	.st2{fill:#E25111;}
</style>
<g id="グループ_6" transform="translate(-1084 -51)">
	<g id="楕円形_2" transform="translate(1084 51)">
		<circle class="st0" cx="7.5" cy="7.5" r="7.5"/>
		<path class="st1" d="M7.5,15C3.4,15,0,11.6,0,7.5S3.4,0,7.5,0S15,3.4,15,7.5S11.6,15,7.5,15z M7.5,1C3.9,1,1,3.9,1,7.5
			S3.9,14,7.5,14S14,11.1,14,7.5S11.1,1,7.5,1z"/>
	</g>
	<polygon class="st2" points="1090.9,61.5 1090.1,60.8 1092.4,58.5 1090.1,56.2 1090.9,55.5 1093.8,58.5 	"/>
</g>
</svg>
