<svg id="icon_walk" xmlns="http://www.w3.org/2000/svg" width="15.59" height="15.59" viewBox="0 0 15.59 15.59">
  <path id="パス_34" data-name="パス 34" d="M0,0H15.59V15.59H0Z" fill="none"/>
  <path id="パス_35" data-name="パス 35" d="M3.771,11.245H6.748v.733A1.554,1.554,0,0,1,5.259,13.59a1.554,1.554,0,0,1-1.489-1.612ZM5.936,4.281c1.083,0,1.624,1.688,1.624,2.861a7.941,7.941,0,0,1-.541,2.052l-.271.879H3.771c0-.586-.271-1.466-.271-2.931A2.743,2.743,0,0,1,5.936,4.281Zm6.525,4.677-.117.722a1.5,1.5,0,0,1-1.725,1.308A1.606,1.606,0,0,1,9.411,9.119L9.529,8.4l2.932.559ZM11.445,1.692a2.833,2.833,0,0,1,1.94,3.275c-.235,1.444-.643,2.259-.736,2.836l-2.932-.56-.126-.917a8.066,8.066,0,0,1-.2-2.122c.188-1.155.992-2.715,2.058-2.512Z" transform="translate(0 0)" fill="#d45b34"/>
</svg>
