<svg id="icon_car" xmlns="http://www.w3.org/2000/svg" width="15.588" height="15.588" viewBox="0 0 15.588 15.588">
  <path id="パス_32" data-name="パス 32" d="M0,0H15.588V15.588H0Z" fill="none"/>
  <path id="パス_33" data-name="パス 33" d="M13.042,14.392H3.949v.65a.65.65,0,0,1-.65.65H2.65a.65.65,0,0,1-.65-.65V9.2L3.632,4.843A1.3,1.3,0,0,1,4.849,4h7.293a1.3,1.3,0,0,1,1.217.843L14.99,9.2v5.846a.65.65,0,0,1-.65.65h-.65a.65.65,0,0,1-.65-.65ZM3.387,9.2H13.6L12.142,5.3H4.849Zm1.535,3.248a.974.974,0,1,0-.974-.974A.974.974,0,0,0,4.923,12.444Zm7.145,0a.974.974,0,1,0-.974-.974A.974.974,0,0,0,12.067,12.444Z" transform="translate(-0.701 -1.402)" fill="#d45b34"/>
</svg>
