<svg id="icon_train" xmlns="http://www.w3.org/2000/svg" width="12.74" height="12.74" viewBox="0 0 12.74 12.74">
  <path id="パス_30" data-name="パス 30" d="M0,0H12.74V12.74H0Z" fill="none"/>
  <path id="パス_31" data-name="パス 31" d="M10.538,12.024l.955.8v.265H4.062V12.82l.956-.8H4.062A1.062,1.062,0,0,1,3,10.963V5.123A2.123,2.123,0,0,1,5.123,3h5.308a2.123,2.123,0,0,1,2.123,2.123v5.839a1.062,1.062,0,0,1-1.062,1.062Zm-6.476-6.9V7.247h7.432V5.123Zm3.716,5.839A1.062,1.062,0,1,0,6.716,9.9,1.062,1.062,0,0,0,7.778,10.963Z" transform="translate(-1.407 -1.407)" fill="#d45b34"/>
</svg>
